
<svg width="400" height="150" viewBox="0 0 400 150" fill="none" xmlns="http://www.w3.org/2000/svg">
  <g transform="translate(0, 0)">
    <path d="M200 20L225 75H300L240 110L265 165L200 130L135 165L160 110L100 75H175L200 20Z" fill="#B20E0E" style="display:none;"/>
    <path d="M227.5 25C227.5 25 245 35 260 55C275 75 285 95 285 95C285 95 270 80 255 75C240 70 227.5 70 227.5 70L227.5 25Z" fill="#6e1b21"/>
    <path d="M172.5 25C172.5 25 155 35 140 55C125 75 115 95 115 95C115 95 130 80 145 75C160 70 172.5 70 172.5 70L172.5 25Z" fill="#6e1b21"/>
    <path d="M227.5 25C227.5 25 240 35 250 55C260 75 270 95 270 95C270 95 255 80 245 75C235 70 227.5 70 227.5 70L227.5 25Z" fill="#6e1b21"/>
    <path d="M172.5 25C172.5 25 160 35 150 55C140 75 130 95 130 95C130 95 145 80 155 75C165 70 172.5 70 172.5 70L172.5 25Z" fill="#6e1b21"/>
    <path d="M227.5 25C227.5 25 235 35 245 55C255 75 260 95 260 95C260 95 250 80 240 75C230 70 227.5 70 227.5 70L227.5 25Z" fill="#6e1b21"/>
    <path d="M172.5 25C172.5 25 165 35 155 55C145 75 140 95 140 95C140 95 150 80 160 75C170 70 172.5 70 172.5 70L172.5 25Z" fill="#6e1b21"/>
    <path d="M200 40L210 60H230L215 75L225 95L200 80L175 95L185 75L170 60H190L200 40Z" fill="#e1c9a1"/>
  </g>
  <g transform="translate(48, 100)">
    <text font-family="'Montserrat', sans-serif" font-weight="700" font-size="36" fill="#e1c9a1">BLAKE WHITEN</text>
  </g>
</svg>
